<svg height="1470" width="720" xmlns="http://www.w3.org/2000/svg">
<rect height="1470" fill="#555" width="720"></rect>
<text fill="#7f7" font-family="Courier New" font-size="12" xml:space="preserve">
<tspan x="10" y="26">└─┬ gulp-awspublish@3.3.0 </tspan>
<tspan x="10" y="42">  ├─┬ aws-sdk@2.37.0 </tspan>
<tspan x="10" y="58">  │ ├─┬ buffer@4.9.1 </tspan>
<tspan x="10" y="74">  │ │ ├── base64-js@1.2.0 </tspan>
<tspan x="10" y="90">  │ │ ├── ieee754@1.1.8 </tspan>
<tspan x="10" y="106">  │ │ └── isarray@1.0.0 </tspan>
<tspan x="10" y="122">  │ ├── crypto-browserify@1.0.9 </tspan>
<tspan x="10" y="138">  │ ├── jmespath@0.15.0 </tspan>
<tspan x="10" y="154">  │ ├── querystring@0.2.0 </tspan>
<tspan x="10" y="170">  │ ├── sax@1.1.5 </tspan>
<tspan x="10" y="186">  │ ├─┬ url@0.10.3 </tspan>
<tspan x="10" y="202">  │ │ └── punycode@1.3.2 </tspan>
<tspan x="10" y="218">  │ ├── uuid@3.0.0 </tspan>
<tspan x="10" y="234">  │ ├── xml2js@0.4.15 </tspan>
<tspan x="10" y="250">  │ └─┬ xmlbuilder@2.6.2 </tspan>
<tspan x="10" y="266">  │   └── lodash@3.5.0 </tspan>
<tspan x="10" y="282">  ├── clone@1.0.2 </tspan>
<tspan x="10" y="298">  ├─┬ gulp-util@3.0.8 </tspan>
<tspan x="10" y="314">  │ ├── array-differ@1.0.0 </tspan>
<tspan x="10" y="330">  │ ├── array-uniq@1.0.3 </tspan>
<tspan x="10" y="346">  │ ├── beeper@1.1.1 </tspan>
<tspan x="10" y="362">  │ ├─┬ chalk@1.1.3 </tspan>
<tspan x="10" y="378">  │ │ ├── ansi-styles@2.2.1 </tspan>
<tspan x="10" y="394">  │ │ ├── escape-string-regexp@1.0.5 </tspan>
<tspan x="10" y="410">  │ │ ├─┬ has-ansi@2.0.0 </tspan>
<tspan x="10" y="426">  │ │ │ └── ansi-regex@2.1.1 </tspan>
<tspan x="10" y="442">  │ │ ├── strip-ansi@3.0.1 </tspan>
<tspan x="10" y="458">  │ │ └── supports-color@2.0.0 </tspan>
<tspan x="10" y="474">  │ ├── dateformat@2.0.0 </tspan>
<tspan x="10" y="490">  │ ├─┬ fancy-log@1.3.0 </tspan>
<tspan x="10" y="506">  │ │ └── time-stamp@1.0.1 </tspan>
<tspan x="10" y="522">  │ ├─┬ gulplog@1.0.0 </tspan>
<tspan x="10" y="538">  │ │ └── glogg@1.0.0 </tspan>
<tspan x="10" y="554">  │ ├─┬ has-gulplog@0.1.0 </tspan>
<tspan x="10" y="570">  │ │ └── sparkles@1.0.0 </tspan>
<tspan x="10" y="586">  │ ├── lodash._reescape@3.0.0 </tspan>
<tspan x="10" y="602">  │ ├── lodash._reevaluate@3.0.0 </tspan>
<tspan x="10" y="618">  │ ├── lodash._reinterpolate@3.0.0 </tspan>
<tspan x="10" y="634">  │ ├─┬ lodash.template@3.6.2 </tspan>
<tspan x="10" y="650">  │ │ ├── lodash._basecopy@3.0.1 </tspan>
<tspan x="10" y="666">  │ │ ├── lodash._basetostring@3.0.1 </tspan>
<tspan x="10" y="682">  │ │ ├── lodash._basevalues@3.0.0 </tspan>
<tspan x="10" y="698">  │ │ ├── lodash._isiterateecall@3.0.9 </tspan>
<tspan x="10" y="714">  │ │ ├─┬ lodash.escape@3.2.0 </tspan>
<tspan x="10" y="730">  │ │ │ └── lodash._root@3.0.1 </tspan>
<tspan x="10" y="746">  │ │ ├─┬ lodash.keys@3.1.2 </tspan>
<tspan x="10" y="762">  │ │ │ ├── lodash._getnative@3.9.1 </tspan>
<tspan x="10" y="778">  │ │ │ ├── lodash.isarguments@3.1.0 </tspan>
<tspan x="10" y="794">  │ │ │ └── lodash.isarray@3.0.4 </tspan>
<tspan x="10" y="810">  │ │ ├── lodash.restparam@3.6.1 </tspan>
<tspan x="10" y="826">  │ │ └── lodash.templatesettings@3.1.1 </tspan>
<tspan x="10" y="842">  │ ├── minimist@1.2.0 </tspan>
<tspan x="10" y="858">  │ ├─┬ multipipe@0.1.2 </tspan>
<tspan x="10" y="874">  │ │ └─┬ duplexer2@0.0.2 </tspan>
<tspan x="10" y="890">  │ │   └─┬ readable-stream@1.1.14 </tspan>
<tspan x="10" y="906">  │ │     └── isarray@0.0.1 </tspan>
<tspan x="10" y="922">  │ ├── object-assign@3.0.0 </tspan>
<tspan x="10" y="938">  │ ├── replace-ext@0.0.1 </tspan>
<tspan x="10" y="954">  │ └── vinyl@0.5.3 </tspan>
<tspan x="10" y="970">  ├── mime@1.3.4 </tspan>
<tspan x="10" y="986">  ├── pad-component@0.0.1 </tspan>
<tspan x="10" y="1002">  ├─┬ pascal-case@2.0.1 </tspan>
<tspan x="10" y="1018">  │ ├─┬ camel-case@3.0.0 </tspan>
<tspan x="10" y="1034">  │ │ ├─┬ no-case@2.3.1 </tspan>
<tspan x="10" y="1050">  │ │ │ └── lower-case@1.1.4 </tspan>
<tspan x="10" y="1066">  │ │ └── upper-case@1.1.3 </tspan>
<tspan x="10" y="1082">  │ └── upper-case-first@1.1.2 </tspan>
<tspan x="10" y="1098">  ├─┬ pumpify@1.3.5 </tspan>
<tspan x="10" y="1114">  │ ├─┬ duplexify@3.5.0 </tspan>
<tspan x="10" y="1130">  │ │ ├── end-of-stream@1.0.0 </tspan>
<tspan x="10" y="1146">  │ │ ├── readable-stream@2.2.6 </tspan>
<tspan x="10" y="1162">  │ │ └── stream-shift@1.0.0 </tspan>
<tspan x="10" y="1178">  │ ├── inherits@2.0.3 </tspan>
<tspan x="10" y="1194">  │ └─┬ pump@1.0.2 </tspan>
<tspan x="10" y="1210">  │   ├─┬ end-of-stream@1.4.0 </tspan>
<tspan x="10" y="1226">  │   │ └── once@1.4.0 </tspan>
<tspan x="10" y="1242">  │   └─┬ once@1.3.3 </tspan>
<tspan x="10" y="1258">  │     └── wrappy@1.0.2 </tspan>
<tspan x="10" y="1274">  ├─┬ through2@2.0.3 </tspan>
<tspan x="10" y="1290">  │ ├─┬ readable-stream@2.2.6 </tspan>
<tspan x="10" y="1306">  │ │ ├── buffer-shims@1.0.0 </tspan>
<tspan x="10" y="1322">  │ │ ├── core-util-is@1.0.2 </tspan>
<tspan x="10" y="1338">  │ │ ├── process-nextick-args@1.0.7 </tspan>
<tspan x="10" y="1354">  │ │ ├── string_decoder@0.10.31 </tspan>
<tspan x="10" y="1370">  │ │ └── util-deprecate@1.0.2 </tspan>
<tspan x="10" y="1386">  │ └── xtend@4.0.1 </tspan>
<tspan x="10" y="1402">  ├─┬ vinyl@1.2.0 </tspan>
<tspan x="10" y="1418">  │ └── clone-stats@0.0.1 </tspan>
<tspan x="10" y="1434">  ├── xml-nodes@0.1.5 </tspan>
<tspan x="10" y="1450">  └── xml-objects@1.0.1</tspan>
</text>
</svg>
